<?xml version="1.0" encoding="utf-8"?>
<!-- Generator: Adobe Illustrator 24.3.0, SVG Export Plug-In . SVG Version: 6.00 Build 0)  -->
<svg version="1.1" id="Icon_1_" xmlns="http://www.w3.org/2000/svg" xmlns:xlink="http://www.w3.org/1999/xlink" x="0px" y="0px"
	 viewBox="0 0 100 100" style="enable-background:new 0 0 100 100;" xml:space="preserve">
<style type="text/css">
	.st0{fill:#DFEDFF;}
	.st1{fill:#0F7BFF;}
</style>
<g id="Ellipse_2">
	<g>
		<ellipse transform="matrix(0.4719 -0.8817 0.8817 0.4719 -17.6765 70.4908)" class="st0" cx="50" cy="50" rx="50" ry="50"/>
	</g>
</g>
<g id="Forma_1">
	<g>
		<path class="st1" d="M64.2,62.8c-0.5,0-0.9,0.4-0.9,0.9v6.6c0,0.5-0.4,0.9-0.9,0.9H29.7c-0.5,0-0.9-0.4-0.9-0.9V29.7
			c0-0.5,0.4-0.9,0.9-0.9h32.7c0.5,0,0.9,0.4,0.9,0.9v9.8c0,0.5,0.4,0.9,0.9,0.9c0.5,0,0.9-0.4,0.9-0.9v-9.8c0-1.5-1.2-2.7-2.7-2.7
			H29.7c-1.5,0-2.7,1.2-2.7,2.7v40.6c0,1.5,1.2,2.7,2.7,2.7h32.7c1.5,0,2.7-1.2,2.7-2.7v-6.6C65.1,63.2,64.7,62.8,64.2,62.8z
			 M46,31.9c-4.6,0-8.3,3.7-8.3,8.3c0,2.4,1,4.5,2.6,6c0,0,0.1,0.1,0.1,0.1c1.5,1.3,3.4,2.2,5.6,2.2s4.1-0.8,5.6-2.2
			c0,0,0.1-0.1,0.1-0.1c1.6-1.5,2.6-3.6,2.6-6C54.3,35.6,50.6,31.9,46,31.9z M46,46.6c-1.5,0-2.8-0.5-3.9-1.3
			c0.8-1.4,2.3-2.3,3.9-2.3c1.6,0,3.1,0.9,3.9,2.3C48.9,46.1,47.5,46.6,46,46.6z M44.6,39.8v-0.6c0-0.8,0.6-1.4,1.4-1.4
			c0.8,0,1.4,0.6,1.4,1.4v0.6c0,0.8-0.6,1.4-1.4,1.4C45.3,41.2,44.6,40.5,44.6,39.8z M51.3,44c-0.7-1-1.6-1.7-2.6-2.2
			c0.4-0.5,0.7-1.2,0.7-2v-0.6c0-1.8-1.5-3.2-3.2-3.2s-3.2,1.5-3.2,3.2v0.6c0,0.7,0.3,1.4,0.7,2c-1.1,0.5-2,1.2-2.6,2.2
			c-0.8-1.1-1.3-2.4-1.3-3.8c0-3.6,2.9-6.5,6.5-6.5c3.6,0,6.5,2.9,6.5,6.5C52.5,41.6,52,42.9,51.3,44z M50.9,66.4H46
			c-0.5,0-0.9,0.4-0.9,0.9c0,0.5,0.4,0.9,0.9,0.9h4.9c0.5,0,0.9-0.4,0.9-0.9C51.8,66.8,51.4,66.4,50.9,66.4z M50.9,61.3H38.1
			c-0.5,0-0.9,0.4-0.9,0.9s0.4,0.9,0.9,0.9h12.8c0.5,0,0.9-0.4,0.9-0.9S51.4,61.3,50.9,61.3z M50.9,56.3H38.1
			c-0.5,0-0.9,0.4-0.9,0.9c0,0.5,0.4,0.9,0.9,0.9h12.8c0.5,0,0.9-0.4,0.9-0.9C51.8,56.7,51.4,56.3,50.9,56.3z M34.9,51.5
			c-0.2-0.2-0.4-0.3-0.6-0.3c-0.2,0-0.5,0.1-0.6,0.3c-0.2,0.2-0.3,0.4-0.3,0.6c0,0.2,0.1,0.5,0.3,0.6c0.2,0.2,0.4,0.3,0.6,0.3
			c0.2,0,0.5-0.1,0.6-0.3c0.2-0.2,0.3-0.4,0.3-0.6C35.2,51.9,35.1,51.7,34.9,51.5z M34.9,56.6c-0.2-0.2-0.4-0.3-0.6-0.3
			c-0.2,0-0.5,0.1-0.6,0.3c-0.2,0.2-0.3,0.4-0.3,0.6c0,0.2,0.1,0.5,0.3,0.6c0.2,0.2,0.4,0.3,0.6,0.3c0.2,0,0.5-0.1,0.6-0.3
			c0.2-0.2,0.3-0.4,0.3-0.6C35.2,57,35.1,56.7,34.9,56.6z M34.3,61.3c-0.2,0-0.5,0.1-0.6,0.3c-0.2,0.2-0.3,0.4-0.3,0.6
			s0.1,0.5,0.3,0.6c0.2,0.2,0.4,0.3,0.6,0.3c0.2,0,0.5-0.1,0.6-0.3c0.2-0.2,0.3-0.4,0.3-0.6s-0.1-0.5-0.3-0.6
			C34.8,61.4,34.5,61.3,34.3,61.3z M50.9,51.3H38.1c-0.5,0-0.9,0.4-0.9,0.9c0,0.5,0.4,0.9,0.9,0.9h12.8c0.5,0,0.9-0.4,0.9-0.9
			C51.8,51.7,51.4,51.3,50.9,51.3z M71.1,38.7c-0.9-0.5-1.9-0.6-2.9-0.4c-1,0.3-1.8,0.9-2.3,1.8L54.7,59.7c-0.1,0.1-0.1,0.2-0.1,0.3
			l-0.8,7.1c0,0.4,0.1,0.7,0.4,0.9c0.1,0.1,0.3,0.1,0.4,0.1c0.2,0,0.4-0.1,0.5-0.2l5.8-4.3c0.1-0.1,0.2-0.2,0.2-0.3l11.3-19.6
			C73.5,42.1,72.9,39.7,71.1,38.7z M55.8,65.3l0.4-3.7l2.6,1.5L55.8,65.3z M60.1,61.8l-3.4-2l9.1-15.7l3.4,2L60.1,61.8z M70.9,43
			l-0.9,1.5l-3.4-2l0.9-1.5c0.3-0.5,0.7-0.8,1.2-0.9c0.5-0.1,1-0.1,1.5,0.2c0.5,0.3,0.8,0.7,0.9,1.2C71.3,42,71.2,42.5,70.9,43z"/>
	</g>
</g>
</svg>
