<svg width="18" height="25" xmlns="http://www.w3.org/2000/svg" xmlns:xlink="http://www.w3.org/1999/xlink" xmlns:svgjs="http://svgjs.com/svgjs" viewBox="0.146 0 17.709 25" fill="#0f7bff"><svg xmlns="http://www.w3.org/2000/svg" width="18" height="25" viewBox="2 2 17 24"><path paint-order="stroke fill markers" fill-rule="evenodd" d="M2.255 9.838a.843.843 0 0 0 0 1.21.864.864 0 0 0 1.207 0L9.64 4.915v20.238c0 .472.379.847.854.847a.855.855 0 0 0 .865-.847V4.915l6.167 6.133a.88.88 0 0 0 1.219 0 .843.843 0 0 0 0-1.21l-7.642-7.584a.844.844 0 0 0-1.206 0L2.255 9.838z"/></svg></svg>