<svg width="1921" height="961" xmlns="http://www.w3.org/2000/svg" xmlns:xlink="http://www.w3.org/1999/xlink" xmlns:svgjs="http://svgjs.com/svgjs" viewBox="0 4957 1921 961"><svg width="1921" height="961" xmlns="http://www.w3.org/2000/svg" xmlns:xlink="http://www.w3.org/1999/xlink" xmlns:svgjs="http://svgjs.com/svgjs" viewBox="0 0.25 1921 960.5" fill="#fff" y="4957"><svg xmlns="http://www.w3.org/2000/svg" xmlns:xlink="http://www.w3.org/1999/xlink" width="1921" height="961" viewBox="1 2 1920 960"><path paint-order="stroke fill markers" fill-rule="evenodd" d="M1 2h1920v960H1V2z"/></svg></svg><svg width="66" height="67" xmlns="http://www.w3.org/2000/svg" xmlns:xlink="http://www.w3.org/1999/xlink" xmlns:svgjs="http://svgjs.com/svgjs" viewBox="0.18 0 65.64 67" fill="#ebf9ff" x="948" y="5087"><svg xmlns="http://www.w3.org/2000/svg" xmlns:xlink="http://www.w3.org/1999/xlink" width="66" height="67" viewBox="3.296 3.216 64.679 66.019"><path paint-order="stroke fill markers" fill-rule="evenodd" d="M7.49 43.83L42.17 7.813c5.746-5.968 15.242-6.147 21.21-.402 5.967 5.746 6.147 15.242.401 21.21L29.102 64.638c-5.746 5.969-15.242 6.148-21.21.403-5.967-5.746-6.147-15.242-.401-21.21z"/></svg></svg><svg width="66" height="67" xmlns="http://www.w3.org/2000/svg" xmlns:xlink="http://www.w3.org/1999/xlink" xmlns:svgjs="http://svgjs.com/svgjs" viewBox="0.18 0 65.641 67" fill="#edf5ff" x="905" y="5095"><svg xmlns="http://www.w3.org/2000/svg" width="66" height="67" viewBox="3.296 3.216 64.679 66.019"><path paint-order="stroke fill markers" fill-rule="evenodd" d="M7.49 43.831L42.17 7.812c5.746-5.967 15.242-6.147 21.21-.401 5.967 5.745 6.147 15.241.401 21.209L29.102 64.639c-5.746 5.967-15.242 6.148-21.21.401-5.967-5.745-6.147-15.241-.401-21.209z"/></svg></svg></svg>