<svg width="71" height="71" xmlns="http://www.w3.org/2000/svg" xmlns:xlink="http://www.w3.org/1999/xlink" xmlns:svgjs="http://svgjs.com/svgjs" viewBox="925 1297 71 71"><svg width="71" height="71" xmlns="http://www.w3.org/2000/svg" xmlns:xlink="http://www.w3.org/1999/xlink" xmlns:svgjs="http://svgjs.com/svgjs" fill="#f5dfff" x="925" y="1297"><svg xmlns="http://www.w3.org/2000/svg" xmlns:xlink="http://www.w3.org/1999/xlink" width="71" height="71" viewBox="2 2 70 70"><path paint-order="stroke fill markers" fill-rule="evenodd" d="M37 2c19.33 0 35 15.67 35 35S56.33 72 37 72 2 56.33 2 37 17.67 2 37 2z"/></svg></svg><svg width="40" height="37" xmlns="http://www.w3.org/2000/svg" xmlns:xlink="http://www.w3.org/1999/xlink" xmlns:svgjs="http://svgjs.com/svgjs" viewBox="0 0.039 40 36.923" fill="#af00ff" x="941" y="1314"><svg xmlns="http://www.w3.org/2000/svg" width="40" height="37" viewBox="2 1.999 39 36"><path paint-order="stroke fill markers" fill-rule="evenodd" d="M36.601 20.195l-4.243-6.473a1.777 1.777 0 0 0-1.491-.801h-18.72c-.605 0-1.162.299-1.49.799L6.4 20.193a1.744 1.744 0 0 0 .163 2.125l13.61 15.093a1.787 1.787 0 0 0 2.654 0l13.61-15.094c.53-.588.598-1.461.164-2.122zm-6.594-5.77l-3.568 5.452-3.57-5.451h7.138zM25.04 20.51h-7.08l3.54-5.404 3.54 5.404zm-4.91-6.084l-3.56 5.435-3.56-5.435h7.12zm-8.528.62l3.578 5.464H8.01l3.592-5.465zm-3.27 6.969h7.666l4.053 12.998L8.33 22.015zm13.168 12.532l-3.908-12.532h7.816L21.5 34.547zm1.449.467l4.054-12.999h7.667L22.948 35.014zm4.891-14.504l3.575-5.461 3.579 5.461h-7.154zm-23.529 0H2.762a.757.757 0 0 0-.762.752c0 .416.341.753.762.753H4.31c.421 0 .762-.337.762-.753a.757.757 0 0 0-.762-.752zm35.928 0H38.69a.757.757 0 0 0-.761.752c0 .416.34.753.761.753h1.55c.42 0 .76-.337.76-.753a.757.757 0 0 0-.76-.752zm-4.94-12.865a.769.769 0 0 0-1.077 0l-2.53 2.5a.745.745 0 0 0 0 1.063.761.761 0 0 0 .538.22.76.76 0 0 0 .539-.22l2.53-2.499a.746.746 0 0 0 0-1.064zm-23.956 2.486l-2.53-2.5a.767.767 0 0 0-1.077 0 .746.746 0 0 0 0 1.064l2.53 2.5a.766.766 0 0 0 1.077 0 .746.746 0 0 0 0-1.064zM21.52 2a.757.757 0 0 0-.761.752v4.904c0 .415.34.753.761.753.42 0 .762-.338.762-.753V2.751a.757.757 0 0 0-.762-.752zm.538 7.67a.772.772 0 0 0-1.077 0 .753.753 0 0 0-.223.531c0 .2.082.393.223.533a.77.77 0 0 0 1.077 0 .75.75 0 0 0 0-1.064z"/></svg></svg></svg>