<svg width="11" height="21" xmlns="http://www.w3.org/2000/svg" xmlns:xlink="http://www.w3.org/1999/xlink" xmlns:svgjs="http://svgjs.com/svgjs" viewBox="0.253 0 10.493 21" fill="#fff"><svg xmlns="http://www.w3.org/2000/svg" width="11" height="21" viewBox="1.003 1.998 9.995 20.002"><path paint-order="stroke fill markers" fill-rule="evenodd" d="M10.276 1.998h-2.24c-1.714 0-2.945.378-3.693 1.135-.748.757-1.122 1.872-1.122 3.344v1.404c0 .371-.323.671-.722.671h-.774c-.399 0-.722.301-.722.672v2.104c0 .37.323.671.722.671H2.5c.4 0 .722.3.722.672v8.657c0 .371.324.672.722.672H6.95c.398 0 .722-.3.722-.672v-8.657c0-.371.323-.672.722-.672H9.91c.398 0 .756-.3.797-.668l.24-2.11c.042-.37-.247-.669-.646-.669h-1.91c-.398 0-.721-.3-.721-.671V6.829c0-.259.012-.46.039-.601.026-.142.084-.28.176-.419.091-.137.24-.232.444-.285.204-.053.476-.079.815-.079h1.13c.4 0 .723-.3.723-.671V2.67c0-.371-.323-.672-.722-.672z"/></svg></svg>