<?xml version="1.0" encoding="utf-8"?>
<!-- Generator: Adobe Illustrator 24.3.0, SVG Export Plug-In . SVG Version: 6.00 Build 0)  -->
<svg version="1.1" id="Icon_1_" xmlns="http://www.w3.org/2000/svg" xmlns:xlink="http://www.w3.org/1999/xlink" x="0px" y="0px"
	 viewBox="0 0 100 100" style="enable-background:new 0 0 100 100;" xml:space="preserve">
<style type="text/css">
	.st0{fill:#DFEDFF;}
	.st1{fill:#0F7BFF;}
</style>
<g id="Ellipse_2">
	<g>
		<ellipse transform="matrix(0.4719 -0.8817 0.8817 0.4719 -17.6765 70.4908)" class="st0" cx="50" cy="50" rx="50" ry="50"/>
	</g>
</g>
<g id="Forma_1">
	<g>
		<path class="st1" d="M50,26.7c-1.3,0-2.3,1.1-2.3,2.4c0,1.3,1,2.4,2.3,2.4c1.3,0,2.3-1.1,2.3-2.4C52.3,27.8,51.3,26.7,50,26.7z
			 M50,29.9c-0.5,0-0.8-0.4-0.8-0.9c0-0.5,0.4-0.9,0.8-0.9c0.5,0,0.8,0.4,0.8,0.9C50.8,29.6,50.5,29.9,50,29.9z M60.4,41
			c-0.6-2.6-3-4.4-5.7-4.4c-1.7,0-3.3,0.7-4.7,1.9c-1.4-1.2-3-1.9-4.7-1.9c-2.7,0-5.1,1.8-5.7,4.4c-0.3,1.4-0.3,3.7,1.6,6.4
			c1.7,2.5,4.6,4.8,8.5,7c0.2,0.1,0.5,0.1,0.7,0c3.9-2.1,6.8-4.5,8.5-7C60.7,44.6,60.7,42.4,60.4,41z M57.6,46.5
			c-1.5,2.2-4.1,4.4-7.6,6.3c-3.5-2-6.1-4.1-7.6-6.3c-1.2-1.8-1.7-3.6-1.3-5.2c0.5-2,2.2-3.3,4.3-3.3c1.5,0,3,0.7,4.2,1.9
			c0.3,0.3,0.7,0.3,1,0c1.2-1.2,2.7-1.9,4.2-1.9c2.1,0,3.8,1.3,4.3,3.3C59.3,42.9,58.9,44.7,57.6,46.5z M44.9,42
			c-0.4,0-0.7,0.3-0.7,0.8v1c0,0.4,0.3,0.8,0.7,0.8s0.7-0.3,0.7-0.8v-1C45.6,42.4,45.3,42,44.9,42z M55.1,42c-0.4,0-0.7,0.3-0.7,0.8
			v1c0,0.4,0.3,0.8,0.7,0.8c0.4,0,0.7-0.3,0.7-0.8v-1C55.9,42.4,55.5,42,55.1,42z M50.7,43.2c-0.2,0.2-0.4,0.3-0.7,0.3
			c-0.3,0-0.5-0.1-0.7-0.3c-0.3-0.3-0.7-0.3-1-0.1c-0.3,0.3-0.3,0.8-0.1,1.1c0.5,0.5,1.1,0.8,1.8,0.8c0.7,0,1.4-0.3,1.8-0.8
			c0.3-0.3,0.2-0.8-0.1-1.1C51.4,42.8,51,42.9,50.7,43.2z M40.6,65.1c-0.4,0-0.7,0.3-0.7,0.8c0,0.4,0.3,0.8,0.7,0.8h18.8
			c0.4,0,0.7-0.3,0.7-0.8c0-0.4-0.3-0.8-0.7-0.8H40.6z M59.4,61.1H40.6c-0.4,0-0.7,0.3-0.7,0.8c0,0.4,0.3,0.8,0.7,0.8h18.8
			c0.4,0,0.7-0.3,0.7-0.8C60.2,61.4,59.8,61.1,59.4,61.1z M59.4,57.1H40.6c-0.4,0-0.7,0.3-0.7,0.8c0,0.4,0.3,0.8,0.7,0.8h18.8
			c0.4,0,0.7-0.3,0.7-0.8C60.2,57.4,59.8,57.1,59.4,57.1z M69.3,37.4c0.4,0,0.7-0.3,0.7-0.8v-4.8c0-2.6-2-4.7-4.5-4.7h-3.9
			c-0.3-0.9-1.1-1.5-2-1.5h-5.2c-0.4,0-0.8-0.2-1.2-0.4c-0.9-0.8-2-1.2-3.2-1.2c-1.2,0-2.3,0.4-3.2,1.2c-0.3,0.3-0.7,0.4-1.2,0.4
			h-5.2c-0.9,0-1.7,0.6-2,1.5h-3.9c-2.5,0-4.5,2.1-4.5,4.7v39.5c0,2.6,2,4.7,4.5,4.7h31c2.5,0,4.5-2.1,4.5-4.7V39.6
			c0-0.4-0.3-0.8-0.7-0.8c-0.4,0-0.7,0.3-0.7,0.8v31.7c0,1.7-1.4,3.1-3,3.1h-31c-1.7,0-3-1.4-3-3.1V31.8c0-1.7,1.4-3.1,3-3.1h3.8V31
			h-3.8c-0.4,0-0.7,0.3-0.7,0.8v29c0,0.4,0.3,0.8,0.7,0.8s0.7-0.3,0.7-0.8V32.5h3.1c0,0,0,0,0,0c0.2,0.5,0.5,1,1,1.3
			c0.3,0.2,0.7,0.3,1.1,0.3h19c0.5,0,0.9-0.2,1.3-0.5c0.4-0.3,0.6-0.7,0.8-1.1c0,0,0,0,0,0h3.1v38.1H35.3v-6.8
			c0-0.4-0.3-0.8-0.7-0.8s-0.7,0.3-0.7,0.8v7.6c0,0.4,0.3,0.8,0.7,0.8h30.9c0.4,0,0.7-0.3,0.7-0.8V31.8c0-0.4-0.3-0.8-0.7-0.8h-3.8
			v-2.3h3.8c1.7,0,3,1.4,3,3.1v4.8C68.5,37,68.9,37.4,69.3,37.4z M60.2,31.8c0,0.4-0.2,0.8-0.7,0.8c0,0-19,0-19,0
			c-0.5,0-0.7-0.4-0.7-0.8v-3.9c0-0.4,0.3-0.7,0.7-0.7h5.2c0.8,0,1.5-0.3,2.1-0.8c0.6-0.5,1.4-0.9,2.2-0.9c0.8,0,1.6,0.3,2.2,0.9
			c0.6,0.5,1.3,0.8,2.1,0.8h5.2c0.4,0,0.7,0.3,0.7,0.7V31.8z"/>
	</g>
</g>
</svg>
