<?xml version="1.0" encoding="utf-8"?>
<!-- Generator: Adobe Illustrator 24.3.0, SVG Export Plug-In . SVG Version: 6.00 Build 0)  -->
<svg version="1.1" id="Icon_1_" xmlns="http://www.w3.org/2000/svg" xmlns:xlink="http://www.w3.org/1999/xlink" x="0px" y="0px"
	 viewBox="0 0 100 100" style="enable-background:new 0 0 100 100;" xml:space="preserve">
<style type="text/css">
	.st0{fill:#DFEDFF;}
	.st1{fill:#0F7BFF;}
</style>
<g id="Ellipse_2">
	<g>
		<ellipse transform="matrix(0.4719 -0.8817 0.8817 0.4719 -17.6765 70.4908)" class="st0" cx="50" cy="50" rx="50" ry="50"/>
	</g>
</g>
<g id="Forma_1">
	<g>
		<path class="st1" d="M43.3,28.8c0.2,0,0.5-0.1,0.6-0.3c0.2-0.2,0.3-0.4,0.3-0.6c0-0.2-0.1-0.5-0.3-0.6c-0.2-0.2-0.4-0.3-0.6-0.3
			c-0.2,0-0.5,0.1-0.6,0.3c-0.2,0.2-0.3,0.4-0.3,0.6c0,0.2,0.1,0.5,0.3,0.6C42.8,28.7,43,28.8,43.3,28.8z M74,44.1
			c0-0.3-0.1-0.5-0.4-0.7L69,40.1V29.8c0-1.5-1.2-2.8-2.8-2.8H46.9c-0.5,0-0.9,0.4-0.9,0.9c0,0.5,0.4,0.9,0.9,0.9h19.4
			c0.5,0,0.9,0.4,0.9,0.9v18L56,56.9l-2.8-2c-1.6-1.2-3.8-1.2-5.4,0l-2.8,2l-11.2-9.1v-18c0-0.5,0.4-0.9,0.9-0.9h5
			c0.5,0,0.9-0.4,0.9-0.9c0-0.5-0.4-0.9-0.9-0.9h-5c-1.5,0-2.8,1.2-2.8,2.8v10.4l-4.6,3.3c0,0,0,0,0,0c-0.2,0.2-0.4,0.4-0.4,0.7
			v25.2c0,2.5,2.1,4.6,4.6,4.6h37.8c2.5,0,4.6-2.1,4.6-4.6L74,44.1C74,44.1,74,44.1,74,44.1z M69,42.4l2.5,1.8L69,46.3V42.4z
			 M32,42.4v3.9l-2.5-2.1L32,42.4z M28.8,46.1L43.5,58L28.8,68.6V46.1z M69.4,72.2H31.6c-1.1,0-2-0.6-2.4-1.5l19.7-14.3
			c1-0.7,2.3-0.7,3.2,0l15.7,11.4h-9.2c-0.5,0-0.9,0.4-0.9,0.9c0,0.5,0.4,0.9,0.9,0.9h11.7l1.5,1.1C71.4,71.6,70.5,72.2,69.4,72.2z
			 M72.2,68.6L57.5,58l14.6-11.9V68.6z M48.6,44.4c0.2,0.2,0.4,0.3,0.6,0.3s0.5-0.1,0.6-0.3l5.2-5.2c0.4-0.4,0.4-0.9,0-1.3
			c-0.4-0.4-0.9-0.4-1.3,0l-4.5,4.5l-1.9-1.9c-0.4-0.4-0.9-0.4-1.3,0c-0.4,0.4-0.4,0.9,0,1.3L48.6,44.4z M50.5,50.4
			c5.1,0,9.2-4.1,9.2-9.2c0-5.1-4.1-9.2-9.2-9.2c-5.1,0-9.2,4.1-9.2,9.2C41.3,46.3,45.4,50.4,50.5,50.4z M50.5,33.8
			c4.1,0,7.4,3.3,7.4,7.4c0,4.1-3.3,7.4-7.4,7.4c-4.1,0-7.4-3.3-7.4-7.4C43.1,37.1,46.4,33.8,50.5,33.8z M54.5,67.8
			c-0.2,0-0.5,0.1-0.6,0.3c-0.2,0.2-0.3,0.4-0.3,0.6c0,0.2,0.1,0.5,0.3,0.6c0.2,0.2,0.4,0.3,0.6,0.3c0.2,0,0.5-0.1,0.6-0.3
			c0.2-0.2,0.3-0.4,0.3-0.6c0-0.2-0.1-0.5-0.3-0.6C55,67.9,54.8,67.8,54.5,67.8z"/>
	</g>
</g>
</svg>
