<svg width="71" height="71" xmlns="http://www.w3.org/2000/svg" xmlns:xlink="http://www.w3.org/1999/xlink" xmlns:svgjs="http://svgjs.com/svgjs" viewBox="1315 1246 71 71"><svg width="71" height="71" xmlns="http://www.w3.org/2000/svg" xmlns:xlink="http://www.w3.org/1999/xlink" xmlns:svgjs="http://svgjs.com/svgjs" fill="#dfffe3" x="1315" y="1246"><svg xmlns="http://www.w3.org/2000/svg" xmlns:xlink="http://www.w3.org/1999/xlink" width="71" height="71" viewBox="2 2 70 70"><path paint-order="stroke fill markers" fill-rule="evenodd" d="M37 2c19.33 0 35 15.67 35 35S56.33 72 37 72 2 56.33 2 37 17.67 2 37 2z"/></svg></svg><svg width="34" height="34" xmlns="http://www.w3.org/2000/svg" xmlns:xlink="http://www.w3.org/1999/xlink" xmlns:svgjs="http://svgjs.com/svgjs" viewBox="0 0 33.999 34" fill="#0fff2d" x="1334" y="1265"><svg xmlns="http://www.w3.org/2000/svg" width="34" height="34" viewBox="1 1.998 33 33.001"><path paint-order="stroke fill markers" fill-rule="evenodd" d="M12.88 2.187a.647.647 0 0 0-1.1.456.649.649 0 0 0 .644.645.648.648 0 0 0 .645-.645.65.65 0 0 0-.19-.456zM33.999 14.02a.642.642 0 0 0-.266-.49l-3.214-2.326V3.933a1.936 1.936 0 0 0-1.933-1.935H14.954a.645.645 0 0 0 0 1.29h13.632c.355 0 .644.289.644.645v12.655l-7.867 6.423-1.974-1.427a3.214 3.214 0 0 0-3.778 0l-1.974 1.427-7.868-6.423V3.933c0-.356.29-.645.645-.645h3.513a.644.644 0 1 0 0-1.29H6.414A1.936 1.936 0 0 0 4.48 3.933v7.271L1.267 13.53a.643.643 0 0 0-.267.522v17.724A3.226 3.226 0 0 0 4.223 35h26.554A3.226 3.226 0 0 0 34 31.776V14.052l-.001-.032zm-3.48-1.224l1.78 1.286-1.78 1.453v-2.74zm-26.039 0v2.739l-1.779-1.453 1.78-1.286zM2.29 15.41l10.266 8.383-10.267 7.43V15.41zm28.487 18.3H4.223a1.934 1.934 0 0 1-1.72-1.052l13.863-10.03a1.929 1.929 0 0 1 2.267 0l11.041 7.988h-6.438a.644.644 0 1 0 0 1.289h8.22l1.04.753a1.934 1.934 0 0 1-1.719 1.052zm1.934-2.488l-10.268-7.43 10.268-8.382v15.812zM20.676 9.69a.645.645 0 0 0-.911 0l-3.163 3.163-1.367-1.368a.646.646 0 0 0-.912.912l1.823 1.824a.646.646 0 0 0 .912 0l3.618-3.62a.644.644 0 0 0 0-.91zM17.5 5.48a6.483 6.483 0 0 0-6.476 6.475 6.484 6.484 0 0 0 6.476 6.477 6.484 6.484 0 0 0 6.476-6.476A6.483 6.483 0 0 0 17.5 5.479zm0 11.663a5.193 5.193 0 0 1-5.187-5.187A5.193 5.193 0 0 1 17.5 6.768a5.192 5.192 0 0 1 5.187 5.187 5.193 5.193 0 0 1-5.187 5.188zm3.27 13.662a.65.65 0 0 0-.911 0 .648.648 0 0 0 0 .91c.12.12.285.19.456.19a.648.648 0 0 0 .644-.645.65.65 0 0 0-.189-.455z"/></svg></svg></svg>