<?xml version="1.0" encoding="utf-8"?>
<!-- Generator: Adobe Illustrator 24.3.0, SVG Export Plug-In . SVG Version: 6.00 Build 0)  -->
<svg version="1.1" id="Icon_1_" xmlns="http://www.w3.org/2000/svg" xmlns:xlink="http://www.w3.org/1999/xlink" x="0px" y="0px"
	 viewBox="0 0 100 100" style="enable-background:new 0 0 100 100;" xml:space="preserve">
<style type="text/css">
	.st0{fill:#DFEDFF;}
	.st1{fill:#CFE4FE;}
	.st2{fill:#0F7BFF;}
</style>
<g id="bg">
	<g>
		<ellipse transform="matrix(0.8817 -0.4719 0.4719 0.8817 -17.6766 29.5092)" class="st0" cx="50" cy="50" rx="50" ry="50"/>
	</g>
</g>
<g id="bg_1_">
	<g>
		<circle class="st1" cx="50.5" cy="50.5" r="37.5"/>
	</g>
</g>
<g id="icon">
	<g>
		<path class="st2" d="M78,24c0-0.1,0-0.1,0-0.2c0-0.1,0-0.1-0.1-0.2c0,0,0-0.1,0-0.1c0,0,0,0-0.1-0.1c0-0.1-0.1-0.1-0.1-0.2
			c0,0-0.1-0.1-0.2-0.1c0,0,0,0-0.1,0c0,0-0.1,0-0.1,0c-0.1,0-0.1-0.1-0.2-0.1c-0.1,0-0.1,0-0.2,0c-0.1,0-0.1,0-0.2,0
			c-0.1,0-0.1,0-0.2,0c0,0-0.1,0-0.1,0L23.8,41c-0.5,0.2-0.8,0.6-0.8,1.1c0,0.5,0.3,1,0.8,1.1l24.6,9.4L59,77.3
			c0.2,0.4,0.6,0.7,1.1,0.7c0,0,0,0,0.1,0c0.5,0,0.9-0.4,1.1-0.8L78,24.5c0,0,0-0.1,0-0.1c0-0.1,0-0.1,0-0.2C78,24.2,78,24.1,78,24z
			 M27.7,42.2L72.3,27L49,50.4L27.7,42.2z M59.9,73.4L50.7,52l23.5-23.5L59.9,73.4z M41.8,59.2c-0.5-0.5-1.2-0.5-1.7,0L23.4,76
			c-0.5,0.5-0.5,1.2,0,1.7c0.2,0.2,0.5,0.4,0.8,0.4c0.3,0,0.6-0.1,0.8-0.4l16.7-16.7C42.3,60.4,42.3,59.7,41.8,59.2z M44.9,67.6
			L36.5,76c-0.5,0.5-0.5,1.2,0,1.7c0.2,0.2,0.5,0.4,0.8,0.4c0.3,0,0.6-0.1,0.8-0.4l8.4-8.4c0.5-0.5,0.5-1.2,0-1.7
			C46.1,67.1,45.3,67.1,44.9,67.6z M24.2,64.8c0.3,0,0.6-0.1,0.8-0.4l8.4-8.4c0.5-0.5,0.5-1.2,0-1.7c-0.5-0.5-1.2-0.5-1.7,0
			l-8.4,8.4c-0.5,0.5-0.5,1.2,0,1.7C23.6,64.7,23.9,64.8,24.2,64.8z"/>
	</g>
</g>
</svg>
