<?xml version="1.0" encoding="utf-8"?>
<!-- Generator: Adobe Illustrator 24.3.0, SVG Export Plug-In . SVG Version: 6.00 Build 0)  -->
<svg version="1.1" id="Icon_1_" xmlns="http://www.w3.org/2000/svg" xmlns:xlink="http://www.w3.org/1999/xlink" x="0px" y="0px"
	 viewBox="0 0 100 100" style="enable-background:new 0 0 100 100;" xml:space="preserve">
<style type="text/css">
	.st0{fill:#DFEDFF;}
	.st1{fill:#CFE4FE;}
	.st2{fill:#0F7BFF;}
</style>
<g id="bg">
	<g>
		<ellipse transform="matrix(0.8817 -0.4719 0.4719 0.8817 -17.6766 29.5092)" class="st0" cx="50" cy="50" rx="50" ry="50"/>
	</g>
</g>
<g id="bg_1_">
	<g>
		<circle class="st1" cx="50.5" cy="50.5" r="37.5"/>
	</g>
</g>
<g id="icon">
	<g>
		<path class="st2" d="M80.8,21.2c-0.1-0.5-0.5-0.9-1-1c-4.7-0.6-9.6-0.1-14.2,1.5c-4.5,1.5-8.7,4.1-12.1,7.5l-7.7,7.7l-11.1,1.4
			c-0.3,0-0.5,0.1-0.7,0.3L23.3,49.4c-0.3,0.3-0.4,0.7-0.3,1.2c0.1,0.4,0.5,0.7,0.9,0.8l8.1,1.5l1.6,1.6l-3.4,1.8
			c-0.3,0.2-0.5,0.5-0.6,0.8c-0.1,0.4,0.1,0.7,0.3,1l12.9,12.8c0.2,0.2,0.5,0.3,0.8,0.3c0.1,0,0.1,0,0.2,0c0.4-0.1,0.7-0.3,0.9-0.6
			l1.8-3.4l1.6,1.6l1.5,8.1c0.1,0.4,0.4,0.8,0.8,0.9c0.1,0,0.2,0.1,0.3,0.1c0.3,0,0.6-0.1,0.8-0.3l10.7-10.7
			c0.2-0.2,0.3-0.4,0.3-0.7L64,55.1l7.7-7.7c3.4-3.4,6-7.5,7.5-12C80.8,30.8,81.4,26,80.8,21.2z M32.2,50.5l-5.7-1.1l8.9-8.9l7.8-1
			L32.2,50.5z M43.3,68.2L32.7,57.5l2.6-1.4l9.5,9.4L43.3,68.2z M60.4,65.5l-8.9,8.9l-1.1-5.7l11-10.9L60.4,65.5z M70.1,45.7
			l-21,20.9L34.2,51.7l21-20.9c3-3,6.8-5.4,10.8-6.8c0.5,2.7,1.8,5.2,3.8,7.1c2,2,4.5,3.3,7.2,3.8C75.5,39,73.2,42.7,70.1,45.7z
			 M77.7,32.7c-2.3-0.4-4.5-1.5-6.2-3.2c-1.7-1.7-2.8-3.9-3.2-6.2c3.4-0.9,6.9-1.2,10.3-0.9C78.9,25.9,78.6,29.4,77.7,32.7z M54,37
			c-2.7,2.7-2.7,7.2,0,9.9c1.4,1.4,3.2,2,5,2c1.8,0,3.6-0.7,5-2h0c2.7-2.7,2.7-7.2,0-9.9C61.2,34.2,56.8,34.2,54,37z M62.3,45.2
			c-1.8,1.8-4.8,1.8-6.7,0c-1.8-1.8-1.8-4.8,0-6.6c0.9-0.9,2.1-1.4,3.3-1.4c1.2,0,2.4,0.5,3.3,1.4C64.2,40.4,64.2,43.4,62.3,45.2z
			 M35.1,66c-0.5-0.4-1.2-0.4-1.6,0l-9.9,9.9c-0.5,0.4-0.5,1.2,0,1.6c0.2,0.2,0.5,0.3,0.8,0.3c0.3,0,0.6-0.1,0.8-0.3l9.9-9.9
			C35.5,67.2,35.5,66.4,35.1,66z M36.6,69.1l-4.5,4.5c-0.5,0.4-0.5,1.2,0,1.6c0.2,0.2,0.5,0.3,0.8,0.3c0.3,0,0.6-0.1,0.8-0.3
			l4.5-4.5c0.5-0.4,0.5-1.2,0-1.6C37.8,68.7,37,68.7,36.6,69.1z M30.6,75.6c-0.5,0-0.9,0.3-1.1,0.8c-0.2,0.5,0,1,0.4,1.3
			c0.4,0.3,1,0.3,1.4,0c0.4-0.3,0.6-0.9,0.4-1.4C31.4,75.9,31,75.6,30.6,75.6z M31.6,76.3C31.6,76.4,31.6,76.3,31.6,76.3L31.6,76.3z
			 M27.3,78.4L26.7,79c-0.5,0.4-0.5,1.2,0,1.6c0.2,0.2,0.5,0.3,0.8,0.3c0.3,0,0.6-0.1,0.8-0.3l0.6-0.6c0.5-0.4,0.5-1.2,0-1.6
			C28.5,78,27.7,78,27.3,78.4z M26.4,68.3c-0.5-0.4-1.2-0.4-1.6,0l-4.5,4.5c-0.5,0.4-0.5,1.2,0,1.6c0.2,0.2,0.5,0.3,0.8,0.3
			c0.3,0,0.6-0.1,0.8-0.3l4.5-4.5C26.9,69.4,26.9,68.7,26.4,68.3z M28.3,67.8c0.5-0.1,0.8-0.5,0.9-1c0-0.5-0.2-0.9-0.6-1.1
			c-0.4-0.2-1-0.1-1.4,0.2c-0.4,0.4-0.4,1-0.1,1.4c0,0,0,0,0,0c0,0,0,0,0,0C27.3,67.7,27.8,67.9,28.3,67.8z M31.3,65.1l0.6-0.6
			c0.5-0.5,0.5-1.2,0-1.6c-0.5-0.4-1.2-0.4-1.6,0l-0.6,0.6c-0.5,0.4-0.5,1.2,0,1.6c0.2,0.2,0.5,0.3,0.8,0.3
			C30.8,65.4,31.1,65.3,31.3,65.1z"/>
	</g>
</g>
</svg>
