<svg width="71" height="71" xmlns="http://www.w3.org/2000/svg" xmlns:xlink="http://www.w3.org/1999/xlink" xmlns:svgjs="http://svgjs.com/svgjs" viewBox="924 1007 71 71"><svg width="71" height="71" xmlns="http://www.w3.org/2000/svg" xmlns:xlink="http://www.w3.org/1999/xlink" xmlns:svgjs="http://svgjs.com/svgjs" fill="none" x="924" y="1007"><svg xmlns="http://www.w3.org/2000/svg" xmlns:xlink="http://www.w3.org/1999/xlink" width="71" height="71" viewBox="2 2 70 70"><path paint-order="stroke fill markers" d="M37 2c19.33 0 35 15.67 35 35S56.33 72 37 72 2 56.33 2 37 17.67 2 37 2z"/></svg></svg><svg width="26" height="38" xmlns="http://www.w3.org/2000/svg" xmlns:xlink="http://www.w3.org/1999/xlink" xmlns:svgjs="http://svgjs.com/svgjs" viewBox="0.167 0 25.665 38" fill="#dcdcdc" x="947" y="1024"><svg xmlns="http://www.w3.org/2000/svg" width="26" height="38" viewBox="2 2 24.965 36.964"><path paint-order="stroke fill markers" fill-rule="evenodd" d="M2.375 26.89c-.5-.503-.5-1.342 0-1.862a1.227 1.227 0 0 1 1.771 0l9.073 9.445V3.303C13.221 2.578 13.775 2 14.473 2s1.27.577 1.27 1.304v31.169l9.057-9.445a1.248 1.248 0 0 1 1.79 0c.5.52.5 1.36 0 1.863L15.367 38.572a1.198 1.198 0 0 1-1.77 0L2.374 26.891z"/></svg></svg></svg>