<svg width="19" height="17" xmlns="http://www.w3.org/2000/svg" xmlns:xlink="http://www.w3.org/1999/xlink" xmlns:svgjs="http://svgjs.com/svgjs" viewBox="0 0.055 19 16.89" fill="#d8d8d8"><svg xmlns="http://www.w3.org/2000/svg" width="19" height="17" viewBox="2 1.999 17.999 16"><path paint-order="stroke fill markers" fill-rule="evenodd" d="M19.469 4.26a6.612 6.612 0 0 1-.266.076c-.543.144-.592-.046-.2-.464.176-.188.331-.392.466-.612.303-.495.04-.71-.474-.479-.184.082-.37.157-.56.224-.53.186-1.282-.096-1.755-.41C16.084 2.198 15.406 2 14.646 2c-1.064 0-1.97.394-2.72 1.181-.75.788-1.126 1.74-1.126 2.857 0 .153.008.308.025.465.027.256-.384.441-.938.36a10.292 10.292 0 0 1-3.416-1.144A11.017 11.017 0 0 1 3.64 3.531c-.392-.42-.92-.384-1.067.183-.088.34-.131.693-.131 1.06A4.129 4.129 0 0 0 3.447 7.5c.348.401.295.634-.19.491-.485-.143-.84-.354-.84-.34v.025c0 .974.291 1.83.875 2.568.36.455.777.805 1.253 1.053.501.26.735.406.454.444a3.868 3.868 0 0 1-.875.018c-.2-.018-.236.42.068.914.242.391.551.736.928 1.034.383.303.796.52 1.239.653.538.16.646.455.166.756-1.187.748-2.501 1.122-3.942 1.122-.162 0-.317-.004-.465-.011-.256-.013-.084.224.412.497A10.272 10.272 0 0 0 7.56 18a10.77 10.77 0 0 0 3.847-.682c1.198-.454 2.222-1.062 3.072-1.825.85-.762 1.582-1.639 2.197-2.631a12.014 12.014 0 0 0 1.825-6.612c-.002-.146.363-.538.771-.94.184-.181.36-.372.528-.571.37-.442.206-.643-.331-.48z"/></svg></svg>