<svg width="20" height="15" xmlns="http://www.w3.org/2000/svg" xmlns:xlink="http://www.w3.org/1999/xlink" xmlns:svgjs="http://svgjs.com/svgjs" viewBox="0 0.13 20 14.74" fill="#d8d8d8"><svg xmlns="http://www.w3.org/2000/svg" width="20" height="15" viewBox="1 1.996 18.997 14.001"><path paint-order="stroke fill markers" fill-rule="evenodd" d="M19.669 4.248c-.233-1.068-1.06-1.856-2.054-1.974-2.355-.278-4.74-.28-7.113-.278-2.374-.001-4.759 0-7.115.278-.994.118-1.82.906-2.052 1.974C1.004 5.77 1 7.43 1 8.996c0 1.567 0 3.228.331 4.749.232 1.068 1.058 1.856 2.053 1.974 2.356.278 4.74.28 7.114.278 2.374.001 4.758 0 7.113-.278.995-.118 1.821-.906 2.054-1.974.33-1.521.332-3.182.332-4.749 0-1.566.003-3.226-.328-4.748zM8.047 12.114V5.471l6.04 3.332-6.04 3.311z"/></svg></svg>