<svg width="71" height="71" xmlns="http://www.w3.org/2000/svg" xmlns:xlink="http://www.w3.org/1999/xlink" xmlns:svgjs="http://svgjs.com/svgjs" viewBox="535 1247 71 71"><svg width="71" height="71" xmlns="http://www.w3.org/2000/svg" xmlns:xlink="http://www.w3.org/1999/xlink" xmlns:svgjs="http://svgjs.com/svgjs" fill="#dfedff" x="535" y="1247"><svg xmlns="http://www.w3.org/2000/svg" xmlns:xlink="http://www.w3.org/1999/xlink" width="71" height="71" viewBox="2 2 70 70"><path paint-order="stroke fill markers" fill-rule="evenodd" d="M37 2c19.33 0 35 15.67 35 35S56.33 72 37 72 2 56.33 2 37 17.67 2 37 2z"/></svg></svg><svg width="32" height="32" xmlns="http://www.w3.org/2000/svg" xmlns:xlink="http://www.w3.org/1999/xlink" xmlns:svgjs="http://svgjs.com/svgjs" fill="#0f7bff" x="555" y="1267"><svg xmlns="http://www.w3.org/2000/svg" width="32" height="32" viewBox="2 1.999 31 31"><path paint-order="stroke fill markers" fill-rule="evenodd" d="M32.823 7.685l-5.51-5.509A.605.605 0 0 0 26.885 2H8.902a1.819 1.819 0 0 0-1.816 1.816v1.154C4.112 6.137 2 9.035 2 12.42c0 .334.271.605.605.605h7.393a.606.606 0 0 0 .605-.605V5.026a.605.605 0 0 0-.605-.605c-.584 0-1.153.062-1.701.182v-.788c0-.334.271-.605.605-.605H26.28v3.693c0 1.002.815 1.816 1.817 1.816h3.693v22.463a.606.606 0 0 1-.605.605H8.902a.606.606 0 0 1-.605-.605v-5.186a.605.605 0 0 0-1.211 0v5.186c0 1.002.815 1.817 1.816 1.817h22.282A1.818 1.818 0 0 0 33 31.182V8.113a.605.605 0 0 0-.177-.428zM9.393 5.658v6.155H3.237a6.799 6.799 0 0 1 6.154-6.155zm18.703 1.85a.606.606 0 0 1-.606-.605V4.066l3.443 3.443h-2.837zM8.119 23.369a.61.61 0 0 0-.428-.177.609.609 0 0 0-.428 1.033.61.61 0 0 0 .428.177.61.61 0 0 0 .606-.605.609.609 0 0 0-.178-.428zm4.047-16.779a.606.606 0 0 0-.605.606v6.786H4.774a.606.606 0 0 0-.605.607c0 4.409 3.587 7.996 7.997 7.996s7.998-3.587 7.998-7.996c0-4.41-3.588-7.999-7.998-7.999zm.606 1.238c1.417.126 2.71.69 3.744 1.554l-3.744 3.744V7.827zm-.606 13.547c-3.538 0-6.452-2.722-6.76-6.182h6.76a.605.605 0 0 0 .428-.176v-.001l4.778-4.777a6.757 6.757 0 0 1 1.581 4.35 6.794 6.794 0 0 1-6.787 6.786zm16.358-.266a1.818 1.818 0 0 0-1.673 2.524l-3.488 3.488a1.81 1.81 0 0 0-1.569-.008l-2.316-2.316a1.818 1.818 0 0 0-1.692-2.477 1.818 1.818 0 0 0-1.649 2.576l-2.221 2.221a1.819 1.819 0 0 0-2.597 1.64c0 1.002.814 1.817 1.816 1.817a1.819 1.819 0 0 0 1.638-2.601l2.21-2.209a1.802 1.802 0 0 0 1.7-.049l2.251 2.25a1.818 1.818 0 0 0 1.636 2.606 1.818 1.818 0 0 0 1.644-2.588l3.455-3.455a1.818 1.818 0 0 0 2.67-1.603 1.818 1.818 0 0 0-1.815-1.816zm-15.39 8.254a.606.606 0 1 1 .42-1.042l.007.008.009.008a.604.604 0 0 1-.435 1.026zm4.652-4.622a.606.606 0 1 1 .002-1.212.606.606 0 0 1-.002 1.212zm4.784 4.619a.605.605 0 1 1 0-1.21.605.605 0 0 1 0 1.21zm5.954-5.83a.606.606 0 1 1 .001-1.212.606.606 0 0 1-.001 1.212zm-3.026-7.302h-3.196a.605.605 0 1 0 0 1.211h3.196a.606.606 0 0 0 0-1.211zm3.184.178a.609.609 0 0 0-.428-.178.61.61 0 0 0-.605.606c0 .159.064.315.177.428a.61.61 0 0 0 .856 0 .608.608 0 0 0 0-.856zm1.016-5.99h-7.396a.606.606 0 0 0 0 1.21h7.396a.606.606 0 0 0 0-1.21zm0 2.906h-7.396a.605.605 0 0 0 0 1.211h7.396a.606.606 0 0 0 0-1.211z"/></svg></svg></svg>